<svg width="19" height="19" viewBox="0 0 19 19" fill="none" xmlns="http://www.w3.org/2000/svg">
<path d="M9.5 1L10.25 0.997103C10.2484 0.584024 9.91308 0.25 9.5 0.25C9.08692 0.25 8.7516 0.584023 8.75001 0.997103L9.5 1ZM9.51012 3.61955L9.22309 4.31245C9.45498 4.40851 9.71956 4.3822 9.92799 4.24235C10.1364 4.1025 10.2611 3.86765 10.2601 3.61665L9.51012 3.61955ZM9.48988 3.61959L8.73989 3.6167C8.73892 3.86769 8.86357 4.10253 9.07199 4.24239C9.28042 4.38224 9.54499 4.40856 9.77688 4.31251L9.48988 3.61959ZM9.50005 3.61538L9.78708 2.92248C9.60331 2.84635 9.39683 2.84635 9.21305 2.92246L9.50005 3.61538ZM13.651 5.33474L13.1227 4.80236C12.9445 4.97916 12.8666 5.23337 12.9151 5.47964C12.9636 5.72592 13.1321 5.9316 13.364 6.02765L13.651 5.33474ZM13.6611 5.33894L14.354 5.05191C14.2779 4.86815 14.1319 4.72215 13.9481 4.64603L13.6611 5.33894ZM13.6653 5.34903L12.9724 5.63606C13.0684 5.86795 13.2741 6.03641 13.5204 6.0849C13.7667 6.13339 14.0209 6.05547 14.1977 5.87731L13.6653 5.34903ZM15.5104 3.48959L16.0428 4.01787C16.3337 3.72465 16.3328 3.25136 16.0407 2.95926C15.7486 2.66717 15.2753 2.66625 14.9821 2.95722L15.5104 3.48959ZM15.3805 9.48988L15.3834 8.73989C15.1324 8.73892 14.8975 8.86357 14.7577 9.07201C14.6178 9.28044 14.5915 9.54502 14.6876 9.77691L15.3805 9.48988ZM15.3847 9.5L16.0776 9.78701C16.1537 9.60323 16.1537 9.39674 16.0776 9.21297L15.3847 9.5ZM15.3805 9.51012L14.6876 9.22311C14.5915 9.455 14.6178 9.71957 14.7577 9.928C14.8975 10.1364 15.1324 10.2611 15.3834 10.2601L15.3805 9.51012ZM18 9.5L18.0029 10.25C18.416 10.2484 18.75 9.91308 18.75 9.5C18.75 9.08692 18.416 8.7516 18.0029 8.75001L18 9.5ZM13.6653 13.651L14.1977 13.1227C14.0209 12.9445 13.7667 12.8666 13.5204 12.9151C13.2741 12.9636 13.0684 13.1321 12.9724 13.364L13.6653 13.651ZM13.6611 13.661L13.9481 14.354C14.1319 14.2778 14.2779 14.1318 14.354 13.9481L13.6611 13.661ZM13.6509 13.6653L13.3639 12.9723C13.132 13.0684 12.9636 13.2741 12.9151 13.5204C12.8666 13.7666 12.9445 14.0208 13.1227 14.1976L13.6509 13.6653ZM15.5104 15.5104L14.9821 16.0428C15.2753 16.3337 15.7486 16.3328 16.0407 16.0407C16.3328 15.7486 16.3337 15.2753 16.0428 14.9821L15.5104 15.5104ZM9.51012 15.3804L10.2601 15.3833C10.2611 15.1323 10.1364 14.8975 9.92802 14.7577C9.71959 14.6178 9.45503 14.5915 9.22314 14.6875L9.51012 15.3804ZM9.50005 15.3846L9.21304 16.0775C9.3968 16.1536 9.60327 16.1536 9.78703 16.0775L9.50005 15.3846ZM9.48988 15.3804L9.77689 14.6875C9.545 14.5914 9.28043 14.6178 9.072 14.7576C8.86357 14.8975 8.73892 15.1323 8.73989 15.3833L9.48988 15.3804ZM9.5 18L8.75001 18.0029C8.7516 18.416 9.08692 18.75 9.5 18.75C9.91308 18.75 10.2484 18.416 10.25 18.0029L9.5 18ZM5.34909 13.6652L5.87736 14.1976C6.05553 14.0208 6.13345 13.7666 6.08496 13.5203C6.03647 13.2741 5.868 13.0684 5.63612 12.9723L5.34909 13.6652ZM5.339 13.661L4.64609 13.948C4.7222 14.1318 4.8682 14.2778 5.05197 14.3539L5.339 13.661ZM5.3348 13.6509L6.02771 13.3639C5.93166 13.132 5.72597 12.9635 5.4797 12.915C5.23343 12.8665 4.97922 12.9444 4.80242 13.1226L5.3348 13.6509ZM3.48959 15.5104L2.95722 14.9821C2.66625 15.2753 2.66717 15.7486 2.95926 16.0407C3.25136 16.3328 3.72465 16.3337 4.01787 16.0428L3.48959 15.5104ZM3.61963 9.51012L3.61673 10.2601C3.86773 10.2611 4.10258 10.1364 4.24243 9.928C4.38228 9.71957 4.40859 9.455 4.31254 9.2231L3.61963 9.51012ZM3.61544 9.5L2.92252 9.21299C2.84641 9.39676 2.84641 9.60324 2.92253 9.78701L3.61544 9.5ZM3.61963 9.48988L4.31254 9.77689C4.40859 9.54499 4.38227 9.28042 4.24242 9.072C4.10257 8.86357 3.86773 8.73892 3.61673 8.73989L3.61963 9.48988ZM1 9.5L0.997103 8.75001C0.584023 8.7516 0.25 9.08692 0.25 9.5C0.25 9.91308 0.584023 10.2484 0.997103 10.25L1 9.5ZM5.33479 5.3491L4.80242 5.87738C4.97921 6.05555 5.23341 6.13346 5.47968 6.08497C5.72595 6.03649 5.93164 5.86802 6.0277 5.63613L5.33479 5.3491ZM5.339 5.33894L5.052 4.64603C4.86823 4.72215 4.72222 4.86815 4.6461 5.05192L5.339 5.33894ZM5.34908 5.33477L5.63608 6.02768C5.86798 5.93163 6.03645 5.72595 6.08495 5.47967C6.13344 5.2334 6.05553 4.97919 5.87736 4.8024L5.34908 5.33477ZM3.48959 3.48959L4.01787 2.95722C3.72465 2.66625 3.25136 2.66717 2.95926 2.95926C2.66717 3.25136 2.66625 3.72465 2.95722 4.01787L3.48959 3.48959ZM8.75001 1.0029L8.76012 3.62245L10.2601 3.61665L10.25 0.997103L8.75001 1.0029ZM10.2399 3.62249L10.25 1.0029L8.75001 0.997103L8.73989 3.6167L10.2399 3.62249ZM9.77688 4.31251L9.78705 4.3083L9.21305 2.92246L9.20288 2.92668L9.77688 4.31251ZM9.21302 4.30828L9.22309 4.31245L9.79715 2.92665L9.78708 2.92248L9.21302 4.30828ZM13.364 6.02765L13.3741 6.03186L13.9481 4.64603L13.938 4.64182L13.364 6.02765ZM12.9682 5.62597L12.9724 5.63606L14.3582 5.062L14.354 5.05191L12.9682 5.62597ZM14.978 2.96131L13.1329 4.82075L14.1977 5.87731L16.0428 4.01787L14.978 2.96131ZM14.1792 5.86711L16.0387 4.02197L14.9821 2.95722L13.1227 4.80236L14.1792 5.86711ZM14.6876 9.77691L14.6918 9.78702L16.0776 9.21297L16.0734 9.20286L14.6876 9.77691ZM14.6918 9.21299L14.6876 9.22311L16.0734 9.79713L16.0776 9.78701L14.6918 9.21299ZM17.9971 8.75001L15.3776 8.76012L15.3834 10.2601L18.0029 10.25L17.9971 8.75001ZM15.3776 10.2399L17.9971 10.25L18.0029 8.75001L15.3834 8.73989L15.3776 10.2399ZM12.9724 13.364L12.9682 13.374L14.354 13.9481L14.3582 13.938L12.9724 13.364ZM13.3741 12.9681L13.3639 12.9723L13.9379 14.3582L13.9481 14.354L13.3741 12.9681ZM16.0387 14.978L14.1792 13.1329L13.1227 14.1976L14.9821 16.0428L16.0387 14.978ZM13.1329 14.1792L14.978 16.0387L16.0428 14.9821L14.1977 13.1227L13.1329 14.1792ZM9.22314 14.6875L9.21308 14.6917L9.78703 16.0775L9.7971 16.0734L9.22314 14.6875ZM9.78707 14.6917L9.77689 14.6875L9.20287 16.0733L9.21304 16.0775L9.78707 14.6917ZM10.25 17.9971L10.2399 15.3775L8.73989 15.3833L8.75001 18.0029L10.25 17.9971ZM8.76012 15.3775L8.75001 17.9971L10.25 18.0029L10.2601 15.3833L8.76012 15.3775ZM5.63612 12.9723L5.62603 12.9681L5.05197 14.3539L5.06206 14.3581L5.63612 12.9723ZM6.03192 13.374L6.02771 13.3639L4.64188 13.9379L4.64609 13.948L6.03192 13.374ZM4.02197 16.0387L5.86717 14.1792L4.80242 13.1226L2.95722 14.9821L4.02197 16.0387ZM4.82081 13.1328L2.96131 14.978L4.01787 16.0428L5.87736 14.1976L4.82081 13.1328ZM4.31254 9.2231L4.30835 9.21298L2.92253 9.78701L2.92672 9.79713L4.31254 9.2231ZM4.30835 9.787L4.31254 9.77689L2.92671 9.20288L2.92252 9.21299L4.30835 9.787ZM1.0029 10.25L3.62252 10.2399L3.61673 8.73989L0.997103 8.75001L1.0029 10.25ZM3.62253 8.76012L1.0029 8.75001L0.997103 10.25L3.61673 10.2601L3.62253 8.76012ZM6.0277 5.63613L6.0319 5.62597L4.6461 5.05192L4.64189 5.06207L6.0277 5.63613ZM5.626 6.03186L5.63608 6.02768L5.06208 4.64186L5.052 4.64603L5.626 6.03186ZM2.96131 4.02197L4.8208 5.86714L5.87736 4.8024L4.01787 2.95722L2.96131 4.02197ZM5.86717 4.82083L4.02197 2.96131L2.95722 4.01787L4.80242 5.87738L5.86717 4.82083Z" fill="#F58B72"/>
<path d="M8.26256 6.51256C9.05488 6.18437 9.94512 6.18437 10.7374 6.51256V6.51256C11.5298 6.84075 12.1592 7.47025 12.4874 8.26256V8.26256C12.8156 9.05488 12.8156 9.94512 12.4874 10.7374V10.7374C12.1592 11.5298 11.5298 12.1592 10.7374 12.4874V12.4874C9.94512 12.8156 9.05488 12.8156 8.26256 12.4874V12.4874C7.47025 12.1592 6.84075 11.5298 6.51256 10.7374V10.7374C6.18437 9.94512 6.18437 9.05488 6.51256 8.26256V8.26256C6.84075 7.47025 7.47025 6.84075 8.26256 6.51256V6.51256Z" fill="#F58B72"/>
</svg>
