<svg width="13" height="17" viewBox="0 0 13 17" fill="none" xmlns="http://www.w3.org/2000/svg">
<path fill-rule="evenodd" clip-rule="evenodd" d="M5.53563 0.85C6.04563 0.313438 6.375 0 6.375 0C6.49081 0.385688 6.62363 0.75225 6.76919 1.10287C7.63194 3.1705 8.97175 4.66225 10.166 5.99038C11.5579 7.5395 12.75 8.86656 12.75 10.625C12.75 12.3158 12.0783 13.9373 10.8828 15.1328C9.68726 16.3283 8.06576 17 6.375 17C4.68424 17 3.06274 16.3283 1.86719 15.1328C0.67165 13.9373 2.51942e-08 12.3158 0 10.625C0 7.08475 3.80375 2.67431 5.53563 0.85ZM5.97444 1.93481C5.29211 2.67318 4.64367 3.44216 4.03113 4.23938C3.25975 5.24875 2.50538 6.37287 1.94863 7.50125C1.3855 8.64131 1.0625 9.70913 1.0625 10.625C1.0625 10.625 3.71875 12.2188 6.375 11.1562C9.03125 10.0938 11.6875 10.625 11.6875 10.625C11.6875 9.34894 10.8418 8.33319 9.37019 6.69375L9.33831 6.65975C8.23437 5.42938 6.90625 3.9525 5.97444 1.93375V1.93481Z" fill="#F58B72"/>
</svg>
